Coordinates
version=1
nRows=11
nColumns=63
inDegrees=yes

Units are S.I. units (second, meters, Newtons, ...)
If the header above contains a line with 'inDegrees', this indicates whether rotational values are in degrees (yes) or radians (no).

endheader
time	pelvis_tilt	pelvis_list	pelvis_rotation	pelvis_tx	pelvis_ty	pelvis_tz	hip_flexion_r	hip_adduction_r	hip_rotation_r	knee_angle_r	knee_angle_r_beta	ankle_angle_r	subtalar_angle_r	mtp_angle_r	hip_flexion_l	hip_adduction_l	hip_rotation_l	knee_angle_l	knee_angle_l_beta	ankle_angle_l	subtalar_angle_l	mtp_angle_l	L5_S1_Flex_Ext	L5_S1_Lat_Bending	L5_S1_axial_rotation	L4_L5_Flex_Ext	L4_L5_Lat_Bending	L4_L5_axial_rotation	L3_L4_Flex_Ext	L3_L4_Lat_Bending	L3_L4_axial_rotation	L2_L3_Flex_Ext	L2_L3_Lat_Bending	L2_L3_axial_rotation	L1_L2_Flex_Ext	L1_L2_Lat_Bending	L1_L2_axial_rotation	L1_T12_Flex_Ext	L1_T12_Lat_Bending	L1_T12_axial_rotation	Abs_r3	Abs_r2	Abs_r1	Abs_t1	Abs_t2	neck_flexion	neck_bending	neck_rotation	arm_flex_r	arm_add_r	arm_rot_r	elbow_flex_r	pro_sup_r	wrist_flex_r	wrist_dev_r	arm_flex_l	arm_add_l	arm_rot_l	elbow_flex_l	pro_sup_l	wrist_flex_l	wrist_dev_l
      2.25423729	     -4.16424582	     -4.23955898	     96.18900323	      0.06897119	      0.44223368	      0.84467828	      5.69535878	     -1.14277850	    -10.80123304	      7.79307498	      0.13601482	     29.14212795	     16.62723818	      0.00000000	      6.96807597	      1.34212634	     -6.32807236	      9.76716800	      0.17046924	     25.73796363	      5.71248270	      0.00000000	      0.12460480	     -0.13009902	     -0.35587078	      0.23140358	     -0.17303169	     -0.37811271	      0.20471323	     -0.31632275	     -0.37811271	      0.14241083	     -0.31632275	     -0.31138694	      0.11570802	     -0.26529792	     -0.28914501	      0.07119918	     -0.20152338	     -0.26690309	      0.89003964	     -1.47170611	     -1.97924653	      0.00000000	      0.00000000	     13.76571575	     -5.46335768	     13.88677681	      9.61080470	    -14.57285890	     46.92224384	     71.80204290	     89.34049387	     14.85338684	     -5.03290995	      6.16418152	    -12.94292117	     43.35145501	     60.04284545	     88.74189232	     20.33123719	    -10.24009800
      2.27118644	     -4.21257296	     -4.21493563	     95.96504283	      0.06915489	      0.44222438	      0.84324685	      5.61722597	     -1.18298582	    -10.92504449	      7.85392816	      0.13707691	     29.22226403	     16.95657490	      0.00000000	      6.77039597	      1.40189012	     -6.25807084	      9.66194984	      0.16863284	     25.76063802	      5.40216774	      0.00000000	      0.15506667	     -0.14053352	     -0.31083298	      0.28797430	     -0.18690958	     -0.33026004	      0.25475902	     -0.34169320	     -0.33026004	      0.17722569	     -0.34169320	     -0.27197886	      0.14399491	     -0.28657596	     -0.25255180	      0.08860509	     -0.21768642	     -0.23312474	      1.10762568	     -1.58974329	     -1.72875980	      0.00000000	      0.00000000	     13.24563890	     -5.25658312	     13.47528085	      8.67088646	    -14.59904981	     46.55701338	     71.20872763	     89.31774755	     14.36286700	     -7.68295985	      6.23507048	    -13.06208343	     43.44302626	     59.90475416	     88.89419599	     20.94062233	    -10.63406957
      2.28813559	     -4.22809858	     -4.09451012	     95.85275775	      0.06927063	      0.44238407	      0.84230524	      5.46124523	     -1.17367397	    -10.91170351	      7.90581817	      0.13798256	     29.22518545	     16.97125275	      0.00000000	      6.59881847	      1.39079173	     -6.27861376	      9.69033655	      0.16912828	     25.81736690	      5.36914784	      0.00000000	      0.15923588	     -0.14282621	     -0.32978989	      0.29571695	     -0.18995886	     -0.35040176	      0.26160862	     -0.34726765	     -0.35040176	      0.18199068	     -0.34726765	     -0.28856615	      0.14786644	     -0.29125121	     -0.26795428	      0.09098738	     -0.22123780	     -0.24734242	      1.13740594	     -1.61567868	     -1.83419242	      0.00000000	      0.00000000	     13.18603228	     -5.25901649	     13.47375338	      8.20080918	    -14.78125212	     46.58197635	     71.13054649	     89.20075685	     14.31446647	     -7.76424144	      6.22821985	    -13.19979090	     43.40701096	     59.80325039	     88.93980258	     20.90068013	    -10.63748702
      2.30508475	     -4.35268364	     -3.76439234	     95.56212838	      0.06987285	      0.44292338	      0.84079300	      4.96250243	     -1.20657003	    -10.61561992	      7.75528024	      0.13535517	     29.31451074	     17.05974830	      0.00000000	      5.90812171	      1.50498453	     -6.05661800	      9.23043237	      0.16110144	     25.74854901	      4.94106896	      0.00000000	      0.13960420	     -0.16627662	     -0.15630421	      0.25925896	     -0.22114791	     -0.16607322	      0.22935574	     -0.40428498	     -0.16607322	      0.15955364	     -0.40428498	     -0.13676618	      0.12963646	     -0.33907128	     -0.12699717	      0.07976984	     -0.25756249	     -0.11722816	      0.99717883	     -1.88095439	     -0.86931713	      0.00000000	      0.00000000	     12.53000604	     -5.35247857	     12.23539339	      6.44084906	    -14.72161705	     45.00098131	     70.90536791	     89.19678049	     12.12397633	    -10.67409057	      6.83054172	    -13.25329613	     44.79052115	     59.12065823	     88.99741637	     19.61922230	    -11.70552767
      2.32203390	     -4.37977045	     -3.58571043	     95.52713615	      0.07040407	      0.44307655	      0.83964891	      4.66465179	     -1.15939339	    -10.59410049	      7.68611920	      0.13414809	     29.43531438	     17.05605306	      0.00000000	      5.57657390	      1.48413103	     -5.93533776	      9.08299795	      0.15852822	     25.85436935	      4.94265984	      0.00000000	      0.13270940	     -0.17651583	     -0.17026888	      0.24645462	     -0.23476606	     -0.18091068	      0.21802827	     -0.42918060	     -0.18091068	      0.15167357	     -0.42918060	     -0.14898527	      0.12323395	     -0.35995109	     -0.13834346	      0.07583015	     -0.27342303	     -0.12770166	      0.94792996	     -1.99678242	     -0.94698441	      0.00000000	      0.00000000	     12.55338095	     -5.33824123	     12.28278305	      5.54228629	    -14.55935164	     44.27799072	     70.80379828	     89.09620148	     11.59081931	    -11.11089010	      6.61748294	    -13.26236341	     44.49276440	     58.72035865	     88.99923348	     19.36645528	    -11.75989329
      2.33898305	     -4.42200881	     -3.47405763	     95.46134319	      0.07089765	      0.44320924	      0.83824013	      4.38139054	     -1.12538539	    -10.43582165	      7.51082471	      0.13108862	     29.38120277	     16.96558563	      0.00000000	      5.20598706	      1.52172102	     -5.49180222	      8.77675988	      0.15318336	     25.68017747	      4.53833971	      0.00000000	      0.13801315	     -0.19384999	     -0.11923950	      0.25630422	     -0.25782049	     -0.12669197	      0.22674181	     -0.47132688	     -0.12669197	      0.15773523	     -0.47132688	     -0.10433456	      0.12815901	     -0.39529891	     -0.09688209	      0.07886071	     -0.30027364	     -0.08942962	      0.98581414	     -2.19286990	     -0.66317432	      0.00000000	      0.00000000	     12.61010427	     -5.40129189	     11.59501394	      4.46298409	    -14.38416794	     43.59724719	     70.56170289	     89.06124068	      9.58588123	    -12.84080605	      6.61112983	    -13.21367430	     44.49589820	     58.26383125	     89.02317226	     19.89982380	    -10.97635691
      2.35593220	     -4.45836625	     -3.38833395	     95.38518661	      0.07155420	      0.44322351	      0.83705829	      4.16961339	     -1.09167313	    -10.30508540	      7.40510617	      0.12924348	     29.43714372	     16.94617508	      0.00000000	      4.94165935	      1.49285009	     -5.60520812	      8.62251167	      0.15049122	     25.67742869	      4.85313327	      0.00000000	      0.14004694	     -0.20869268	     -0.13006446	      0.26008117	     -0.27756126	     -0.13819349	      0.23008311	     -0.50741538	     -0.13819349	      0.16005964	     -0.50741538	     -0.11380640	      0.13004759	     -0.42556611	     -0.10567737	      0.08002282	     -0.32326496	     -0.09754834	      1.00034127	     -2.36077332	     -0.72337950	      0.00000000	      0.00000000	     12.76901174	     -5.33236129	     11.54191222	      3.97284360	    -14.10488489	     43.42091463	     70.18028826	     88.99686736	      8.35036627	    -13.50895709	      6.10154080	    -13.00695700	     42.99195754	     58.16651011	     89.04063924	     22.18020488	     -7.96374370
      2.37288136	     -4.42790016	     -3.31457868	     95.54983784	      0.07186625	      0.44328977	      0.83598367	      3.91738181	     -0.98888082	    -10.28850242	      7.23196996	      0.12622169	     29.46461313	     16.78845799	      0.00000000	      4.77479197	      1.34998002	     -6.18965828	      8.59405897	      0.14999463	     25.86031980	      6.07771791	      0.00000000	      0.14098215	     -0.21812487	     -0.19228077	      0.26181794	     -0.29010608	     -0.20429832	      0.23161957	     -0.53034881	     -0.20429832	      0.16112850	     -0.53034881	     -0.16824567	      0.13091602	     -0.44480024	     -0.15622813	      0.08055720	     -0.33787542	     -0.14421058	      1.00702138	     -2.46747216	     -1.06940796	      0.00000000	      0.00000000	     12.86659413	     -5.19439030	     11.34676803	      3.84354956	    -13.86183608	     43.54368546	     69.69114229	     88.92049657	      7.63261941	    -13.76304683	      5.54070590	    -12.75912561	     41.41983833	     58.13263670	     89.02896909	     24.32533918	     -4.66739244
      2.38983051	     -4.32244123	     -3.18327060	     95.93433855	      0.07140575	      0.44346114	      0.83508136	      3.61710211	     -0.87000840	    -10.73072817	      7.09460934	      0.12382429	     29.57480166	     16.96480859	      0.00000000	      4.43752652	      1.42451685	     -3.32527635	      8.24373383	      0.14388030	     25.36921995	      2.93689122	      0.00000000	      0.12986909	     -0.21242955	     -0.28107823	      0.24117988	     -0.28253131	     -0.29864562	      0.21336192	     -0.51650122	     -0.29864562	      0.14842738	     -0.51650122	     -0.24594345	      0.12059643	     -0.43318634	     -0.22837606	      0.07420720	     -0.32905338	     -0.21080867	      0.92764191	     -2.40304559	     -1.56327279	      0.00000000	      0.00000000	     13.01369993	     -5.02722847	     11.25560806	      3.83104805	    -13.75135385	     43.45876707	     69.35925132	     88.84508043	      7.99830185	    -13.07430874	      5.12081521	    -12.42390386	     40.37336782	     57.87801218	     89.00268416	     25.41737023	     -2.60813730
      2.40677966	     -4.19397672	     -3.05513667	     95.99370174	      0.07151207	      0.44377417	      0.83439965	      3.31197215	     -0.65961513	    -10.50284170	      6.81149690	      0.11888305	     29.46721150	     16.77126739	      0.00000000	      4.18668170	      1.24108219	     -3.29553202	      8.06369875	      0.14073809	     25.44139795	      3.09908191	      0.00000000	      0.11633898	     -0.19966227	     -0.29812070	      0.21605312	     -0.26555081	     -0.31675324	      0.19113331	     -0.48545883	     -0.31675324	      0.13296382	     -0.48545883	     -0.26085561	      0.10803238	     -0.40715129	     -0.24222307	      0.06647609	     -0.30927685	     -0.22359052	      0.83099770	     -2.25861949	     -1.65805789	      0.00000000	      0.00000000	     13.10445961	     -5.02141447	     11.24386333	      4.00438671	    -13.77847581	     43.71320666	     69.08461767	     88.75324646	      7.89693050	    -12.36351913	      5.07313090	    -12.30394900	     40.50970549	     57.51692237	     88.88794730	     24.97144630	     -2.01482022
      2.42372881	     -4.13837686	     -3.10572693	     96.17238575	      0.07121817	      0.44381859	      0.83361809	      3.31393665	     -0.62251814	    -10.82794374	      6.84093671	      0.11939687	     29.65399254	     17.01529150	      0.00000000	      4.11238612	      1.24176677	     -2.10109504	      7.83723128	      0.13678549	     25.34099046	      1.84452694	      0.00000000	      0.13829027	     -0.19839607	     -0.39333128	      0.25681885	     -0.26386678	     -0.41791449	      0.22719708	     -0.48238021	     -0.41791449	      0.15805195	     -0.48238021	     -0.34416487	      0.12841634	     -0.40456927	     -0.31958167	      0.07901906	     -0.30731552	     -0.29499846	      0.98779355	     -2.24429606	     -2.18759059	      0.00000000	      0.00000000	     13.17330898	     -4.83260744	     11.32332303	      4.36901209	    -13.75644253	     44.38604889	     68.53796004	     88.67714176	      8.33414801	    -12.43382389	      4.34026376	    -11.90898671	     39.14020972	     57.09801622	     88.87499345	     25.61871818	     -1.94781548
